<?xml version="1.0" encoding="UTF-8" standalone="no"?>
<!DOCTYPE svg PUBLIC "-//W3C//DTD SVG 20010904//EN"
"http://www.w3.org/TR/2001/REC-SVG-20010904/DTD/svg10.dtd">
<!-- Created with Sodipodi ("http://www.sodipodi.com/") -->
<svg
   xmlns="http://www.w3.org/2000/svg"
   xmlns:sodipodi="http://sodipodi.sourceforge.net/DTD/sodipodi-0.dtd"
   xmlns:xlink="http://www.w3.org/1999/xlink"
   id="svg548"
   sodipodi:version="0.34"
   width="297mm"
   height="210mm"
   sodipodi:docbase="/home/cybic/doc/gfx/blug"
   sodipodi:docname="/home/cybic/doc/gfx/blug/blug_logo_1-22.svg">
  <defs
     id="defs550">
    <linearGradient
       id="linearGradient1240">
      <stop
         style="stop-color:#f2b700;stop-opacity:1;"
         offset="0"
         id="stop1241" />
      <stop
         style="stop-color:#b76f00;stop-opacity:0;"
         offset="1"
         id="stop1242" />
    </linearGradient>
    <linearGradient
       id="linearGradient1234">
      <stop
         style="stop-color:#754700;stop-opacity:1;"
         offset="0"
         id="stop1235" />
      <stop
         style="stop-color:#b77200;stop-opacity:0;"
         offset="1"
         id="stop1236" />
    </linearGradient>
    <linearGradient
       id="linearGradient1227">
      <stop
         style="stop-color:#754d00;stop-opacity:1;"
         offset="0"
         id="stop1228" />
      <stop
         style="stop-color:#b87500;stop-opacity:0;"
         offset="1"
         id="stop1229" />
    </linearGradient>
    <linearGradient
       id="linearGradient3793">
      <stop
         style="stop-color:#f2b700;stop-opacity:1;"
         offset="0.000000"
         id="stop3794" />
      <stop
         style="stop-color:#f2b700;stop-opacity:0.0196078;"
         offset="1.000000"
         id="stop3795" />
    </linearGradient>
    <linearGradient
       id="linearGradient2444">
      <stop
         style="stop-color:#cd0000;stop-opacity:1;"
         offset="0.000000"
         id="stop2445" />
      <stop
         style="stop-color:#9a0000;stop-opacity:1;"
         offset="1.000000"
         id="stop2446" />
    </linearGradient>
    <linearGradient
       id="linearGradient1040">
      <stop
         style="stop-color:#f2b700;stop-opacity:0;"
         offset="0"
         id="stop1041" />
      <stop
         style="stop-color:#f2b700;stop-opacity:1;"
         offset="1"
         id="stop1042" />
    </linearGradient>
    <linearGradient
       id="linearGradient958">
      <stop
         style="stop-color:#6697dd;stop-opacity:0.74902;"
         offset="0.000000"
         id="stop959" />
      <stop
         style="stop-color:#ffffff;stop-opacity:1;"
         offset="1.000000"
         id="stop960" />
    </linearGradient>
    <linearGradient
       id="linearGradient2593">
      <stop
         style="stop-color:#ffffff;stop-opacity:0.615686;"
         offset="0.000000"
         id="stop2594" />
      <stop
         style="stop-color:#ffffff;stop-opacity:0;"
         offset="1.000000"
         id="stop2595" />
    </linearGradient>
    <linearGradient
       id="linearGradient733">
      <stop
         style="stop-color:#000000;stop-opacity:0.654902;"
         offset="0.000000"
         id="stop734" />
      <stop
         style="stop-color:#828da5;stop-opacity:0;"
         offset="1.000000"
         id="stop735" />
    </linearGradient>
    <linearGradient
       id="linearGradient722">
      <stop
         style="stop-color:#5c6582;stop-opacity:0.968627;"
         offset="0.000000"
         id="stop723" />
      <stop
         style="stop-color:#ffffff;stop-opacity:0.647059;"
         offset="1.000000"
         id="stop724" />
    </linearGradient>
    <linearGradient
       id="linearGradient1289">
      <stop
         style="stop-color:#5c6582;stop-opacity:1;"
         offset="0.000000"
         id="stop1290" />
      <stop
         style="stop-color:#ffffff;stop-opacity:1;"
         offset="1.000000"
         id="stop1291" />
    </linearGradient>
    <linearGradient
       id="linearGradient1285">
      <stop
         style="stop-color:#ffffff;stop-opacity:0.552941;"
         offset="0.000000"
         id="stop1286" />
      <stop
         style="stop-color:#828da5;stop-opacity:0;"
         offset="1.000000"
         id="stop1287" />
    </linearGradient>
    <linearGradient
       xlink:href="#linearGradient1289"
       id="linearGradient1288" />
    <linearGradient
       xlink:href="#linearGradient1285"
       id="linearGradient719"
       x1="0.93206877"
       y1="0.07607950"
       x2="0.05283009"
       y2="0.91304344"
       gradientUnits="objectBoundingBox"
       spreadMethod="pad" />
    <linearGradient
       xlink:href="#linearGradient722"
       id="linearGradient721"
       x1="0.39884388"
       y1="0.51562876"
       x2="1.00578010"
       y2="-0.12499998"
       gradientUnits="objectBoundingBox"
       spreadMethod="pad" />
    <linearGradient
       xlink:href="#linearGradient722"
       id="linearGradient729"
       x1="0.27169961"
       y1="0.58928305"
       x2="1.41132104"
       y2="-0.34821439"
       gradientUnits="objectBoundingBox"
       spreadMethod="pad" />
    <linearGradient
       xlink:href="#linearGradient733"
       id="linearGradient730"
       x1="0.94008988"
       y1="0.04687515"
       x2="0.06912450"
       y2="1.13281214"
       gradientUnits="objectBoundingBox"
       spreadMethod="pad" />
    <linearGradient
       xlink:href="#linearGradient733"
       id="linearGradient737"
       x1="0.76552427"
       y1="0.10155515"
       x2="0.07586235"
       y2="1.31249988"
       gradientUnits="objectBoundingBox"
       spreadMethod="pad" />
    <linearGradient
       xlink:href="#linearGradient733"
       id="linearGradient739"
       x1="0.30656633"
       y1="0.01563250"
       x2="0.55474424"
       y2="1.42187524"
       gradientUnits="objectBoundingBox"
       spreadMethod="pad" />
    <linearGradient
       xlink:href="#linearGradient733"
       id="linearGradient741"
       x1="0.65406919"
       y1="0.27344292"
       x2="0.19496773"
       y2="0.75781268"
       gradientUnits="objectBoundingBox"
       spreadMethod="pad" />
    <linearGradient
       xlink:href="#linearGradient733"
       id="linearGradient743"
       x1="0.87292838"
       y1="0.03906312"
       x2="0.08839773"
       y2="0.99218762"
       gradientUnits="objectBoundingBox"
       spreadMethod="pad" />
    <linearGradient
       xlink:href="#linearGradient1289"
       id="linearGradient745"
       x1="0.00000913"
       y1="-0.00000066"
       x2="1.00000918"
       y2="-0.00000066"
       gradientUnits="objectBoundingBox"
       spreadMethod="pad" />
    <linearGradient
       xlink:href="#linearGradient1040"
       id="linearGradient747"
       x1="0.83396429"
       y1="0.50780857"
       x2="0.23018891"
       y2="0.37499994"
       gradientUnits="objectBoundingBox"
       spreadMethod="pad" />
    <radialGradient
       xlink:href="#linearGradient2593"
       id="radialGradient2592"
       cx="0.50000000"
       cy="0.50000000"
       fx="0.50000000"
       fy="0.50000000"
       r="0.50000000"
       gradientUnits="objectBoundingBox"
       spreadMethod="pad" />
    <linearGradient
       xlink:href="#linearGradient2444"
       id="linearGradient1038" />
    <linearGradient
       xlink:href="#linearGradient2444"
       id="linearGradient1039"
       x1="0.49058121"
       y1="0.22658050"
       x2="0.61132127"
       y2="0.53906560"
       gradientUnits="objectBoundingBox"
       spreadMethod="pad" />
    <radialGradient
       xlink:href="#linearGradient2444"
       id="radialGradient3455"
       cx="0.11877601"
       cy="0.02347035"
       fx="0.11877601"
       fy="0.02347035"
       r="1.10771406"
       gradientUnits="objectBoundingBox"
       spreadMethod="pad" />
    <radialGradient
       xlink:href="#linearGradient2444"
       id="radialGradient3456" />
    <radialGradient
       xlink:href="#linearGradient2444"
       id="radialGradient3457"
       cx="0.16149102"
       cy="0.07036375"
       fx="0.16149102"
       fy="0.07036375"
       r="1.00065768"
       gradientUnits="objectBoundingBox"
       spreadMethod="pad" />
    <radialGradient
       xlink:href="#linearGradient2444"
       id="radialGradient3458"
       cx="-0.19580437"
       cy="0.11719452"
       fx="-0.19580437"
       fy="0.11719452"
       r="1.17271256"
       gradientUnits="objectBoundingBox"
       spreadMethod="pad" />
    <radialGradient
       xlink:href="#linearGradient2444"
       id="radialGradient3459" />
    <radialGradient
       xlink:href="#linearGradient2444"
       id="radialGradient3460" />
    <radialGradient
       xlink:href="#linearGradient2444"
       id="radialGradient3461" />
    <radialGradient
       xlink:href="#linearGradient2444"
       id="radialGradient3462" />
    <radialGradient
       xlink:href="#linearGradient2444"
       id="radialGradient3463" />
    <radialGradient
       xlink:href="#linearGradient2444"
       id="radialGradient3464" />
    <radialGradient
       xlink:href="#linearGradient2444"
       id="radialGradient3465"
       cx="0.37085971"
       cy="0.52351534"
       fx="0.37085971"
       fy="0.52351534"
       r="0.58945769"
       gradientUnits="objectBoundingBox"
       gradientTransform="translate(-4.780767e-8,1.267225e-6)"
       spreadMethod="pad" />
    <linearGradient
       xlink:href="#linearGradient2444"
       id="linearGradient3619"
       x1="0.35025379"
       y1="0.55467272"
       x2="1.01030111"
       y2="0.39843637"
       gradientUnits="objectBoundingBox"
       gradientTransform="translate(-1.558501e-6,-3.117261e-7)"
       spreadMethod="pad" />
    <linearGradient
       xlink:href="#linearGradient3793"
       id="linearGradient3791"
       x1="0.10221225"
       y1="0.10155971"
       x2="0.56204474"
       y2="0.76562536"
       gradientUnits="objectBoundingBox"
       spreadMethod="pad" />
    <linearGradient
       xlink:href="#linearGradient3793"
       id="linearGradient3792"
       x1="0.07313871"
       y1="0.07025986"
       x2="0.56097502"
       y2="0.92187434"
       gradientUnits="objectBoundingBox"
       spreadMethod="pad" />
    <linearGradient
       xlink:href="#linearGradient1227"
       id="linearGradient3796"
       x1="4.08487146e-8"
       y1="-4.81286179e-7"
       x2="1.00000012"
       y2="-4.81286179e-7" />
    <linearGradient
       xlink:href="#linearGradient1227"
       id="linearGradient1232"
       x1="0.36237654"
       y1="0.63281661"
       x2="0.50917304"
       y2="0.50000012" />
    <radialGradient
       xlink:href="#linearGradient1234"
       id="radialGradient1233"
       cx="0.54878205"
       cy="0.16343245"
       r="0.44708955"
       fx="0.54878205"
       fy="0.16343245"
       gradientUnits="objectBoundingBox" />
    <radialGradient
       xlink:href="#linearGradient1240"
       id="radialGradient1237"
       cx="0.38212958"
       cy="0.12708758"
       r="0.71039522"
       fx="0.38212958"
       fy="0.12708758" />
    <radialGradient
       xlink:href="#linearGradient733"
       id="radialGradient1246"
       cx="0.5294835"
       cy="0.43116197"
       r="1.20065713"
       fx="0.5294835"
       fy="0.43116197"
       gradientTransform="translate(-3.65953e-6,-2.756145e-6)" />
    <radialGradient
       xlink:href="#linearGradient733"
       id="radialGradient1247" />
    <radialGradient
       xlink:href="#linearGradient733"
       id="radialGradient1248"
       cx="0.5002014"
       cy="0.40013626"
       r="0.83576989"
       fx="0.5002014"
       fy="0.40013626"
       gradientTransform="translate(2.353481e-6,1.536467e-6)" />
  </defs>
  <sodipodi:namedview
     id="base" />
  <path
     sodipodi:type="arc"
     style="fill-rule:evenodd;stroke:none;fill:url(#radialGradient2592);fill-opacity:1;stroke-opacity:1;stroke-width:1pt;stroke-linejoin:miter;stroke-linecap:butt;"
     id="path2591"
     d="M 495.0461 391.4908 A 131.5453 178.2478 0 1 0 231.9556 391.4908 A 131.5453 178.2478 0 1 0  495.0461 391.4908 z"
     sodipodi:cx="363.500854"
     sodipodi:cy="391.490845"
     sodipodi:rx="131.545273"
     sodipodi:ry="178.247757"
     transform="matrix(2.87574,-9.473688e-4,2.210225e-3,1.441048,-555.4672,-169.9866)" />
  <g
     id="g3697">
    <path
       style="fill:url(#linearGradient745);fill-rule:evenodd;stroke:black;stroke-opacity:1;stroke-width:1pt;stroke-linejoin:miter;stroke-linecap:butt;fill-opacity:1;"
       d="M 852.348 465.643 C 856.27 418.581 858.884 418.581 862.806 465.643 L 862.806 502.247 L 852.348 502.342 L 852.348 465.643 z "
       id="path744"
       sodipodi:nodetypes="ccccc"
       transform="matrix(0.743228,0.105274,-0.105274,0.743229,-45.20582,-375.8386)" />
    <path
       style="fill:#5c6384;fill-rule:evenodd;stroke:black;stroke-opacity:1;stroke-width:1pt;stroke-linejoin:miter;stroke-linecap:butt;fill-opacity:1;"
       d="M 834.967 335.612 C 774.502 326.379 727.885 339.303 670.189 368.844 C 659.572 302.84 644.803 240.992 612.031 173.604 C 708.036 182.374 777.733 213.298 834.967 335.612 z "
       id="path1265"
       sodipodi:nodetypes="cccc"
       transform="matrix(0.861433,0.000000,0.000000,0.861433,73.02119,4.575592)" />
    <path
       style="fill:url(#linearGradient739);fill-rule:evenodd;stroke:none;stroke-opacity:1;stroke-width:1pt;stroke-linejoin:miter;stroke-linecap:butt;fill-opacity:1;"
       d="M 834.967 335.612 C 778.072 331.77 729.67 344.694 670.189 370.641 C 659.572 304.637 643.018 224.82 610.246 157.432 C 720.53 182.374 777.733 213.298 834.967 335.612 z "
       id="path738"
       sodipodi:nodetypes="cccc"
       transform="matrix(0.732426,0.000000,0.000000,0.727517,166.3573,40.89677)" />
    <path
       style="fill:#5c6382;fill-rule:evenodd;stroke:black;stroke-opacity:1;stroke-width:1pt;stroke-linejoin:miter;stroke-linecap:butt;fill-opacity:1;"
       d="M 410.4 326.961 C 504.097 318.191 580.646 342.997 668.804 370.229 C 660.957 300.072 642.033 235.453 612.032 172.219 C 573.722 161.141 535.413 154.218 492.949 151.448 C 455.101 191.604 426.093 252.188 410.4 326.961 z "
       id="path1271"
       sodipodi:nodetypes="ccccc"
       transform="matrix(0.861433,0.000000,0.000000,0.861433,73.02119,4.575592)" />
    <path
       style="fill:url(#linearGradient737);fill-rule:evenodd;stroke:none;stroke-opacity:1;stroke-width:1pt;stroke-linejoin:miter;stroke-linecap:butt;fill-opacity:1;"
       d="M 410.4 326.961 C 504.097 318.191 580.646 342.997 668.804 370.229 C 660.957 300.072 642.033 235.453 612.032 172.219 C 573.722 161.141 535.413 154.218 492.949 151.448 C 455.101 191.604 426.093 252.188 410.4 326.961 z "
       id="path736"
       sodipodi:nodetypes="ccccc"
       transform="matrix(0.740015,0.000000,0.000000,0.777779,139.8457,18.55219)" />
    <path
       style="fill:#555c79;fill-rule:evenodd;stroke:black;stroke-opacity:1;stroke-width:1pt;stroke-linejoin:miter;stroke-linecap:butt;fill-opacity:1;"
       d="M 834.967 335.612 C 846.045 312.533 866.814 296.379 886.2 280.225 C 829.427 234.992 772.656 206.374 695.113 191.605 C 779.579 225.298 796.195 264.532 834.967 335.612 z "
       id="path1264"
       sodipodi:nodetypes="cccc"
       transform="matrix(0.861433,0.000000,0.000000,0.861433,73.02119,4.575592)" />
    <path
       style="fill:#565c79;fill-rule:evenodd;stroke:black;stroke-opacity:1;stroke-width:1pt;stroke-linejoin:miter;stroke-linecap:butt;fill-opacity:1;"
       d="M 199.395 269.147 C 272.322 274.224 359.76 283.113 410.532 326.961 C 431.764 248.957 449.562 200.374 492.948 150.064 C 433.869 146.372 385.866 145.448 329.556 147.294 C 282.015 183.758 251.09 210.528 199.395 269.147 z "
       id="path1270"
       sodipodi:nodetypes="ccccc"
       transform="matrix(0.861433,0.000000,0.000000,0.861433,73.02119,4.575592)" />
    <path
       style="fill:#5c6582;fill-rule:evenodd;stroke:black;stroke-opacity:1;stroke-width:1pt;stroke-linejoin:miter;stroke-linecap:butt;fill-opacity:1;"
       d="M 160.624 190.22 C 223.254 159.21 284.526 149.111 333.709 147.295 C 367.248 110.331 388.635 91.9068 427.868 71.1365 C 280.957 90.5824 259.717 115.362 160.624 190.22 z "
       id="path1261"
       sodipodi:nodetypes="cccc"
       transform="matrix(0.861433,0.000000,0.000000,0.861433,73.02119,4.575592)" />
    <path
       style="fill:#505771;fill-rule:evenodd;stroke:black;stroke-opacity:1;stroke-width:1pt;stroke-linejoin:miter;stroke-linecap:butt;fill-opacity:1;"
       d="M 696.498 191.605 C 751.885 202.682 836.351 235.914 884.815 280.225 C 840.505 187.45 710.345 112.677 645.264 97.4456 C 667.419 129.293 684.035 152.833 696.498 191.605 z "
       id="path1263"
       sodipodi:nodetypes="cccc"
       transform="matrix(0.861433,0.000000,0.000000,0.861433,73.02119,4.575592)" />
    <rect
       style="font-size:12;fill:url(#linearGradient1288);fill-rule:evenodd;stroke:#000000;stroke-width:1.24511;"
       id="rect1267"
       width="5.319617"
       height="482.295168"
       x="542.130502"
       y="-26.733192"
       transform="matrix(0.985240,0.171178,-0.146077,0.989273,0.000000,0.000000)" />
    <path
       style="fill:#3d4257;fill-rule:evenodd;stroke:black;stroke-opacity:1;stroke-width:1pt;stroke-linejoin:miter;stroke-linecap:butt;fill-opacity:1;"
       d="M 162.008 188.835 C 183.701 208.682 197.087 221.606 198.01 269.147 C 246.474 215.144 285.245 180.527 329.555 147.294 C 264.937 152.372 233.55 158.833 162.008 188.835 z "
       id="path1269"
       sodipodi:nodetypes="cccc"
       transform="matrix(0.861433,0.000000,0.000000,0.861433,73.02119,4.575592)" />
    <path
       style="fill:#5c6580;fill-rule:evenodd;stroke:black;stroke-opacity:1;stroke-width:1pt;stroke-linejoin:miter;stroke-linecap:butt;fill-opacity:1;"
       d="M 336.479 147.294 C 490.687 144.716 540.027 151.448 696.497 192.989 C 685.42 150.525 648.111 93.5257 621.725 73.9059 C 557.183 73.2169 533.718 76.9849 472.178 57.2897 C 423.026 65.5622 361.45 109.175 336.479 147.294 z "
       id="path1262"
       sodipodi:nodetypes="ccccc"
       transform="matrix(0.861433,0.000000,0.000000,0.861433,73.02119,4.575592)" />
    <path
       style="fill:url(#linearGradient719);fill-rule:evenodd;stroke:none;stroke-opacity:1;stroke-width:1pt;stroke-linejoin:miter;stroke-linecap:butt;fill-opacity:1;"
       d="M 336.479 147.294 C 490.687 144.716 540.027 151.448 696.497 192.989 C 685.42 150.525 648.111 93.5257 621.725 73.9059 C 557.183 73.2169 533.718 76.9849 472.178 57.2897 C 423.026 65.5622 361.45 109.175 336.479 147.294 z "
       id="path718"
       sodipodi:nodetypes="ccccc"
       transform="matrix(0.755081,0.000000,0.000000,0.695458,130.2031,21.96718)" />
    <path
       style="fill:url(#linearGradient721);fill-rule:evenodd;stroke:none;stroke-opacity:1;stroke-width:1pt;stroke-linejoin:miter;stroke-linecap:butt;fill-opacity:1;"
       d="M 693.372 185.352 C 748.759 196.429 828.535 224.972 876.999 269.283 C 807.705 184.436 711.545 121.08 645.264 97.4456 C 667.419 129.293 680.909 146.58 693.372 185.352 z "
       id="path720"
       sodipodi:nodetypes="cccc"
       transform="matrix(0.720403,0.000000,0.000000,0.720403,180.9153,31.20714)" />
    <path
       style="fill:url(#linearGradient729);fill-rule:evenodd;stroke:none;stroke-opacity:1;stroke-width:1pt;stroke-linejoin:miter;stroke-linecap:butt;fill-opacity:1;"
       d="M 182.281 175.562 C 244.911 144.552 288.287 145.172 337.47 143.356 C 371.009 106.392 381.674 89.2067 420.907 68.4364 C 329.837 87.74 265.223 109.454 182.281 175.562 z "
       id="path728"
       sodipodi:nodetypes="cccc"
       transform="matrix(0.695114,0.000000,0.000000,0.663832,121.9598,30.39774)" />
    <path
       style="fill:url(#linearGradient730);fill-rule:evenodd;stroke:none;stroke-opacity:1;stroke-width:1pt;stroke-linejoin:miter;stroke-linecap:butt;fill-opacity:1;"
       d="M 192.382 274.407 C 267.062 277.731 356.254 283.113 407.026 326.961 C 428.258 248.957 453.068 202.127 496.454 151.817 C 437.375 148.125 385.866 145.448 329.556 147.294 C 282.015 183.758 244.077 215.788 192.382 274.407 z "
       id="path732"
       sodipodi:nodetypes="ccccc"
       transform="matrix(0.745647,0.000000,0.000000,0.745610,119.6395,21.52887)" />
    <path
       style="fill:url(#linearGradient741);fill-rule:evenodd;stroke:none;stroke-opacity:1;stroke-width:1pt;stroke-linejoin:miter;stroke-linecap:butt;fill-opacity:1;"
       d="M 846.676 339.563 C 857.754 316.484 880.475 296.379 901.812 284.176 C 845.039 238.943 788.268 198.471 710.726 183.702 C 791.288 221.347 807.904 268.483 846.676 339.563 z "
       id="path740"
       sodipodi:nodetypes="cccc"
       transform="matrix(0.669877,0.000000,0.000000,0.661719,224.4762,57.22192)" />
    <path
       style="fill:url(#linearGradient743);fill-rule:evenodd;stroke:none;stroke-opacity:1;stroke-width:1pt;stroke-linejoin:miter;stroke-linecap:butt;fill-opacity:1;"
       d="M 150.098 192.747 C 171.791 212.594 195.102 225.518 196.025 273.059 C 244.489 219.056 285.245 180.527 329.555 147.294 C 264.937 150.416 223.625 164.701 150.098 192.747 z "
       id="path742"
       sodipodi:nodetypes="cccc"
       transform="matrix(0.658569,0.000000,0.000000,0.668323,121.5742,35.63409)" />
    <path
       style="fill:none;fill-rule:evenodd;stroke:black;stroke-opacity:1;stroke-width:1pt;stroke-linejoin:miter;stroke-linecap:butt;fill-opacity:1;"
       d="M 499.272 328.782 C 500.375 330.162 502.583 330.576 504.308 330.093 "
       id="path748"
       sodipodi:nodetypes="cc" />
    <path
       style="fill:none;fill-rule:evenodd;stroke:#ffffff;stroke-opacity:0.696552;stroke-width:1pt;stroke-linejoin:miter;stroke-linecap:butt;fill-opacity:1;"
       d="M 608.79 71.312 C 634.156 95.2369 653.469 127.809 669.323 166.435 "
       id="path749"
       sodipodi:nodetypes="cc"
       transform="translate(-1.729507,-0.864777)" />
    <path
       style="fill:none;fill-rule:evenodd;stroke:#ffffff;stroke-opacity:0.517241;stroke-width:1pt;stroke-linejoin:miter;stroke-linecap:butt;fill-opacity:1;"
       d="M 488.589 33.2626 C 564.111 55.458 648.28 133.862 667.593 162.111 "
       id="path750"
       sodipodi:nodetypes="cc"
       transform="translate(149.6033,61.39787)" />
    <path
       style="fill:none;fill-rule:evenodd;stroke:#000000;stroke-opacity:0.358333;stroke-width:1pt;stroke-linejoin:miter;stroke-linecap:butt;fill-opacity:1;"
       d="M 605.706 78.7651 C 624.905 87.7838 650.385 115.032 667.473 148.335 "
       id="path1225"
       sodipodi:nodetypes="cc"
       transform="matrix(-1.726323,0.000000,0.000000,0.969390,1523.873,-17.61885)" />
    <path
       style="fill:none;fill-rule:evenodd;stroke:#000000;stroke-opacity:0.441667;stroke-width:1pt;stroke-linejoin:miter;stroke-linecap:butt;fill-opacity:1;"
       d="M 488.589 33.2626 C 559.292 53.3286 573.587 61.4606 622.617 109.939 "
       id="path1227"
       sodipodi:nodetypes="cc"
       transform="matrix(-1.325691,0.000000,0.000000,1.000000,1072.965,36.90912)" />
  </g>
  <text
     style="fill:#000000;stroke:none;font-family:Luxi Sans;font-style:normal;font-weight:normal;font-size:40;fill-opacity:1;stroke-opacity:1;stroke-width:1pt;stroke-linejoin:miter;stroke-linecap:butt;text-anchor:start;writing-mode:lr;"
     x="118.375845"
     y="271.796640"
     id="text1292"
     transform="scale(3.088507,2.560551)">
    <tspan
       x="118.375847"
       y="271.796631"
       sodipodi:role="line"
       id="tspan1550"
       style="stroke:none;stroke-opacity:1;fill:#000000;fill-opacity:1;">
BLUG</tspan>
  </text>
  <path
     style="fill:none;fill-rule:evenodd;stroke:#000000;stroke-opacity:1;stroke-width:1.05141;stroke-linejoin:miter;stroke-linecap:butt;fill-opacity:1;stroke-dasharray:none;"
     d="M 146.416 668.272 L 913.79 668.272 "
     id="path725"
     transform="matrix(0.904600,0.000000,0.000000,1.000000,57.10849,-68.89532)" />
  <path
     style="fill:none;fill-rule:evenodd;stroke:#000000;stroke-opacity:1;stroke-width:1.05141;stroke-linejoin:miter;stroke-linecap:butt;fill-opacity:1;stroke-dasharray:none;"
     d="M 146.416 668.272 L 913.79 668.272 "
     id="path727"
     transform="matrix(0.904600,0.000000,0.000000,1.000000,57.10849,50.83597)" />
  <g
     id="g3620">
    <path
       style="font-size:12;fill:#989898;fill-rule:evenodd;stroke:#000000;stroke-width:3.75;"
       d="M 181.196 706.764 C 181.196 706.764 145.841 703.229 105.182 722.674 C 83.9688 727.977 85.7367 743.666 93.4708 755.046 C 104.744 769.932 139.654 769.078 177.661 768.636 L 235.996 719.138 L 181.196 706.764 z "
       id="path1149"
       sodipodi:nodetypes="ccsccc"
       transform="matrix(0.542424,0.000000,0.000000,0.542424,453.3734,140.5951)" />
    <path
       style="font-size:12;fill:#999999;fill-rule:evenodd;stroke:#000000;stroke-width:3.75;"
       d="M 441.942 727.977 L 244.836 719.138 C 202.41 723.557 191.803 736.816 189.151 743.003 C 173.241 749.19 180.312 761.564 179.428 769.519 C 211.248 810.178 399.515 790.732 444.593 753.609 C 452.548 738.583 442.826 727.977 441.942 727.977 z "
       id="path1150"
       sodipodi:nodetypes="cccccc"
       transform="matrix(0.542424,0.000000,0.000000,0.542424,453.3734,140.5951)" />
    <path
       style="font-size:12;fill:#008020;fill-rule:evenodd;stroke:#000000;stroke-width:3.75;"
       d="M 276.655 650.195 L 272.236 689.086 C 252.791 690.853 242.184 698.808 235.997 702.344 C 199.758 700.576 182.08 707.648 182.08 707.648 C 182.08 707.648 209.48 712.951 207.713 725.326 C 249.255 713.393 305.823 713.172 313.116 763.664 C 377.752 761.915 415.425 749.19 443.71 728.861 L 424.264 671.408 L 276.655 650.195 z "
       id="path1151"
       sodipodi:nodetypes="ccccccccc"
       transform="matrix(0.542424,0.000000,0.000000,0.542424,453.3734,140.5951)" />
    <path
       style="font-size:12;fill:#980000;fill-rule:evenodd;stroke:#000000;stroke-width:3.75;"
       d="M 439.754 409.976 C 398.365 467.749 456.137 450.503 446.652 553.112 C 413.024 572.945 465.622 690.211 575.991 701.421 C 665.667 716.942 721.713 727.289 724.3 766.953 C 724.3 799.719 643.248 809.204 643.248 809.204 L 649.284 818.689 L 510.46 822.138 L 620.829 760.917 L 631.176 783.336 C 657.044 791.096 694.984 774.713 688.086 760.917 C 678.601 716.942 538.052 751.432 427.682 671.242 L 277.843 653.178 C 273.381 661.133 228.5 613.471 250.057 571.22 L 252.643 468.61 C 289.72 476.371 287.996 461.712 285.409 441.018 L 439.754 409.976 z "
       id="path1152"
       sodipodi:nodetypes="cccccccccccccccc"
       transform="matrix(0.542424,0.000000,0.000000,0.542424,453.3734,140.5951)" />
    <path
       style="font-size:12;fill:#800000;fill-rule:evenodd;stroke-width:1pt;"
       d="M 444.927 553.112 C 419.016 565.14 441.726 666.589 550.986 697.972 C 594.192 709.699 707.642 708.566 721.714 761.78 C 731.495 798.348 639.799 807.479 639.799 807.479 L 647.559 816.102 L 517.358 819.551 L 630.314 807.48 C 651.871 796.27 712.576 786.781 712.229 763.504 C 711.714 729.009 634.524 727.446 532.878 715.417 C 488.802 710.201 451.303 684.532 427.682 669.518 L 332.383 657.897 C 370.971 632.696 345.795 621.265 319.186 605.115 C 410.707 597.587 376.809 575.612 444.927 553.112 z "
       id="path1153"
       sodipodi:nodetypes="cscccccsscccc"
       transform="matrix(0.542424,0.000000,0.000000,0.542424,453.3734,140.5951)" />
    <path
       style="font-size:12;fill:#b30000;fill-rule:evenodd;stroke:#000000;stroke-width:3.75;"
       d="M 206.829 246.26 C 207.271 173.782 171.916 170.026 253.012 98.2101 C 281.733 73.0891 313.337 60.645 313.778 72.1354 C 318.198 82.742 253.675 121.633 280.191 150.801 L 206.829 246.26 z "
       id="path1154"
       sodipodi:nodetypes="csccc"
       transform="matrix(0.542424,0.000000,0.000000,0.542424,453.3734,140.5951)" />
    <path
       style="font-size:12;fill:#7d0000;fill-rule:evenodd;stroke-width:1pt;"
       d="M 446.176 550.909 C 449.071 441.155 400.419 473.167 436.186 411.367 L 379.265 416.771 C 416.849 457.112 454.433 568.741 343.125 572.987 L 425.625 654.862 C 425.625 654.862 495 708.763 633.75 713.138 C 516.617 693.383 505.067 685.062 463.75 640.487 C 450.865 626.391 418.249 575.943 446.176 550.909 z "
       id="path1155"
       sodipodi:nodetypes="ccccccsc"
       transform="matrix(0.542424,0.000000,0.000000,0.542424,453.3734,140.5951)" />
    <path
       style="font-size:12;fill:#9a0000;fill-rule:evenodd;stroke:#000000;stroke-width:3.75;stroke-linecap:round;"
       d="M 290.798 164.059 C 242.184 115.445 201.525 265.706 197.106 292.223 C 174.19 311.625 156.447 331.113 181.196 378.843 C 212.132 408.895 215.668 390.333 259.862 424.805 C 304.056 459.276 347.366 439.831 362.392 428.34 C 377.418 416.85 446.361 430.108 476.413 374.423 C 506.465 318.739 483.484 305.481 487.903 294.874 C 502.488 287.803 541.6 266.148 563.586 224.053 C 585.36 180.62 556.847 107.049 501.162 90.6969 C 471.994 93.3485 572.756 157.872 468.458 184.389 C 439.29 156.988 435.883 148.487 364.16 134.007 C 343.589 130.032 252.791 149.917 290.798 164.059 z "
       id="path1156"
       sodipodi:nodetypes="cccccccsccsc"
       transform="matrix(0.542424,0.000000,0.000000,0.542424,453.3734,140.5951)" />
    <path
       style="font-size:12;fill:#ffffe6;fill-rule:evenodd;stroke:#000000;stroke-width:3.75;stroke-dashoffset:0;"
       d="M 327.5 191.112 C 361.25 198.612 362.5 237.362 361.719 269.549 C 360.84 307.173 338.125 347.362 293.75 343.612 C 283.125 344.237 264.375 329.237 261.875 302.518 C 259.375 275.799 300.625 189.862 327.5 191.112 z "
       id="path1157"
       sodipodi:nodetypes="cscsc"
       transform="matrix(0.542424,0.000000,0.000000,0.542424,453.3734,140.5951)" />
    <path
       style="font-size:12;fill:#ffffe6;fill-rule:evenodd;stroke:#000000;stroke-width:3.75;"
       d="M 279.331 183.978 C 265.045 179.344 237.5 208.612 223.75 238.456 C 210 268.299 205.625 300.487 220 306.112 C 243.125 317.362 260.451 285.967 266.313 247.068 C 272.188 207.196 300.5 194.282 279.331 183.978 z "
       id="path1158"
       sodipodi:nodetypes="cscsc"
       transform="matrix(0.542424,0.000000,0.000000,0.542424,453.3734,140.5951)" />
    <path
       style="font-size:12;fill-rule:evenodd;stroke-width:1pt;"
       d="M 236.881 247.144 C 213.627 254.058 210.467 296.216 220.087 302.829 C 224.609 305.938 235.997 311.668 249.255 288.686 C 259.862 267.473 246.331 244.335 236.881 247.144 z "
       id="path1159"
       sodipodi:nodetypes="cscs"
       transform="matrix(0.542424,0.000000,0.000000,0.542424,453.3734,140.5951)" />
    <path
       style="font-size:12;fill:#ffffff;fill-rule:evenodd;stroke-width:1pt;"
       d="M 235.997 253.331 C 223.623 255.1 225.39 274.545 225.39 274.545 C 228.926 278.081 242.184 260.403 235.997 253.331 z "
       id="path1160"
       sodipodi:nodetypes="ccc"
       transform="matrix(0.542424,0.000000,0.000000,0.542424,453.3734,140.5951)" />
    <path
       style="font-size:12;fill-rule:evenodd;stroke-width:1pt;"
       d="M 233.345 243.608 C 212.293 254.904 209.48 295.758 214.784 300.178 C 225.39 318.739 254.541 307.663 255.442 285.151 C 256.309 263.468 248.533 235.459 233.345 243.608 z "
       id="path1161"
       sodipodi:nodetypes="ccss"
       transform="matrix(0.542424,0.000000,0.000000,0.542424,482.1397,148.7456)" />
    <path
       style="font-size:12;fill:#ffffff;fill-rule:evenodd;stroke-width:1pt;"
       d="M 241.3 247.144 C 228.926 248.913 225.39 274.545 233.345 277.197 C 236.881 280.733 247.487 254.216 241.3 247.144 z "
       id="path1162"
       sodipodi:nodetypes="ccc"
       transform="matrix(0.542424,0.000000,0.000000,0.542424,479.7426,148.2661)" />
    <path
       style="font-size:12;fill:none;fill-rule:evenodd;stroke:#000000;stroke-width:3.75;stroke-linecap:round;"
       d="M 255.442 319.623 C 200.642 304.597 209.48 341.72 209.48 341.72 C 209.48 341.72 216.552 370.888 258.978 362.049 C 328.805 370.888 262.513 332.881 262.513 331.997 "
       id="path1163"
       sodipodi:nodetypes="cccc"
       transform="matrix(0.542424,0.000000,0.000000,0.542424,453.3734,140.5951)" />
    <path
       style="font-size:12;fill:none;fill-rule:evenodd;stroke:#000000;stroke-width:3.75;stroke-linecap:round;"
       d="M 206.829 370.888 C 235.997 377.075 238.367 421.514 279.307 423.037 C 330.221 424.964 362.392 376.191 380.07 395.636 "
       id="path1164"
       sodipodi:nodetypes="csc"
       transform="matrix(0.542424,0.000000,0.000000,0.542424,453.3734,140.5951)" />
    <path
       style="font-size:12;fill:url(#radialGradient3455);fill-rule:evenodd;stroke-width:1pt;"
       d="M 506.465 105.723 C 587.782 177.318 466.69 239.19 455.2 219.744 L 441.942 191.46 C 441.942 191.46 563.034 193.227 506.465 105.723 z "
       id="path1165"
       sodipodi:nodetypes="cccc"
       transform="matrix(0.542424,0.000000,0.000000,0.542424,454.3322,141.0745)" />
    <path
       style="font-size:12;fill:none;fill-rule:evenodd;stroke:#000000;stroke-width:3.75;"
       d="M 365.044 340.836 C 334.992 333.765 342.063 338.185 301.404 343.488 "
       id="path1166"
       sodipodi:nodetypes="cc"
       transform="matrix(0.542424,0.000000,0.000000,0.542424,453.3734,140.5951)" />
    <path
       style="font-size:12;fill:#860000;stroke-width:1pt;"
       d="M 500.278 92.4646 C 554.195 108.816 574.525 167.153 567.785 206.928 C 561.046 246.703 509.559 282.499 484.368 294.874 C 505.582 339.952 464.694 400.284 434.871 409.779 C 410.908 417.641 384.156 421.999 365.044 424.385 C 362.233 424.752 333.156 454.799 286.959 437.565 C 353.995 442.261 371.006 386.672 400.4 401.823 C 425.101 415.439 482.379 302.386 426.032 246.26 C 489.671 261.286 620.486 194.112 500.278 92.4646 z "
       id="path1167"
       sodipodi:nodetypes="cscsscscc"
       transform="matrix(0.542424,0.000000,0.000000,0.542424,453.3734,140.5951)" />
    <path
       style="font-size:12;fill:#800000;fill-rule:evenodd;stroke-width:1.25;"
       d="M 282.843 154.779 C 286.82 145.939 341.875 133.419 354.548 134.67 C 422.529 142.265 442.383 160.524 468.458 187.04 L 432.219 202.066 C 403.051 136.217 331.441 121.411 292.165 165.192 L 282.843 154.779 z "
       id="path1168"
       sodipodi:nodetypes="cscccc"
       transform="matrix(0.542424,0.000000,0.000000,0.542424,453.3734,140.5951)" />
    <path
       style="font-size:12;fill:url(#linearGradient1038);fill-rule:evenodd;stroke-width:1pt;"
       d="M 350.017 332.881 C 388.026 212.672 342.063 173.782 308.475 187.04 C 358.857 142.845 400.399 217.093 400.399 336.417 L 350.017 332.881 z "
       id="path1169"
       sodipodi:nodetypes="cccc"
       transform="matrix(0.542424,0.000000,0.000000,0.542424,453.3734,140.5951)" />
    <path
       style="font-size:12;fill:none;fill-rule:evenodd;stroke:#000000;stroke-width:3.75;stroke-linecap:round;"
       d="M 317.314 172.898 C 368.579 146.382 373.883 203.834 373.883 203.834 "
       id="path1170"
       transform="matrix(0.542424,0.000000,0.000000,0.542424,453.3734,140.5951)" />
    <path
       style="font-size:12;fill:url(#radialGradient3462);fill-rule:evenodd;stroke-width:1pt;"
       d="M 232.461 322.275 C 209.187 325.23 216.452 350.256 228.926 354.094 C 274.004 368.236 264.872 318.159 232.461 322.275 z "
       id="path1171"
       sodipodi:nodetypes="css"
       transform="matrix(0.542424,0.000000,0.000000,0.542424,453.3734,140.5951)" />
    <path
       style="font-size:12;fill:#ffcc00;fill-rule:evenodd;stroke:#000000;stroke-width:3.75;"
       d="M 30.1792 413.426 C 48.2867 429.809 93.1244 488.442 146.585 437.569 L 396.641 656.584 C 407.85 660.033 422.509 645.374 413.886 636.752 L 160.381 420.324 C 167.279 416.013 183.662 380.66 149.171 360.828 L 154.345 354.792 C 143.998 343.583 106.059 330.649 106.059 330.649 C 120.717 349.619 124.166 348.756 129.339 372.899 L 142.273 366.001 C 142.273 366.001 175.039 390.144 144.86 409.976 L 112.956 385.833 L 118.992 378.935 C 101.747 383.246 83.6395 369.45 83.6395 369.45 C 76.7413 372.037 92.262 391.869 94.8488 409.976 L 103.472 399.629 L 130.202 422.91 C 130.202 422.91 95.7112 453.09 70.7055 431.533 L 82.7773 419.461 C 63.8075 423.772 56.0471 420.324 30.1792 413.426 z "
       id="path1172"
       sodipodi:nodetypes="cccccccccccccccccccc"
       transform="matrix(0.542424,0.000000,0.000000,0.542424,453.3734,140.5951)" />
    <path
       style="font-size:12;fill:none;fill-rule:evenodd;stroke:#ffff00;stroke-width:3.75;stroke-linecap:round;"
       d="M 143.478 381.898 C 198.522 421.001 345.608 549.439 449.381 637.27 "
       id="path1173"
       sodipodi:nodetypes="cc"
       transform="matrix(0.542424,0.000000,0.000000,0.542424,432.8157,144.0214)" />
    <path
       style="font-size:12;fill:none;fill-rule:evenodd;stroke:#ffa600;stroke-width:3.75;stroke-linecap:round;"
       d="M 123.626 387.312 C 165.887 424.008 191.905 422.805 221.533 392.727 L 473.346 613.507 "
       id="path1174"
       sodipodi:nodetypes="ccc"
       transform="matrix(0.542424,0.000000,0.000000,0.542424,412.7473,162.1317)" />
    <path
       style="font-size:12;fill:#980000;fill-rule:evenodd;stroke:#000000;stroke-width:3.75;stroke-linecap:round;"
       d="M 387.156 477.233 C 383.707 522.934 352.665 504.826 339.731 504.826 C 312.139 466.024 264.715 491.891 264.715 491.891 C 264.715 491.891 195.733 568.633 285.409 572.082 L 250.056 566.046 C 257.816 576.393 268.164 599.674 313.864 587.602 L 277.648 591.914 C 314.294 619.937 397.718 597.087 376.269 536.082 L 382.968 562.966 C 343.611 620.935 359.131 568.416 433.717 560.872 "
       id="path1175"
       sodipodi:nodetypes="cccccccccc"
       transform="matrix(0.542424,0.000000,0.000000,0.542424,453.3734,140.5951)" />
    <path
       style="font-size:12;fill:#800000;fill-rule:evenodd;stroke-width:1pt;"
       d="M 319.965 169.363 C 357.973 153.453 372.115 179.97 377.418 205.602 L 399.516 192.344 C 390.676 186.156 370.347 138.427 319.965 169.363 z "
       id="path1176"
       sodipodi:nodetypes="cccc"
       transform="matrix(0.542424,0.000000,0.000000,0.542424,453.3734,140.5951)" />
    <path
       style="font-size:12;fill:url(#radialGradient3459);fill-rule:evenodd;stroke-width:1pt;"
       d="M 198.875 293.106 C 144.139 327.157 181.196 393.428 205.061 390.334 C 199.758 377.075 177.439 346.36 209.591 363.596 C 181.031 321.832 216.468 177.815 285.951 163.231 C 245.388 121.246 203.515 262.612 198.875 293.106 z "
       id="path1177"
       sodipodi:nodetypes="ccccc"
       transform="matrix(0.542424,0.000000,0.000000,0.542424,453.3734,140.5951)" />
    <path
       style="font-size:12;fill:url(#radialGradient3460);fill-rule:evenodd;stroke-width:1pt;"
       d="M 384.49 383.262 C 400.399 331.113 324.386 353.21 298.753 353.21 C 324.385 361.165 285.494 392.101 247.487 377.075 C 277.539 402.708 294.897 401.045 318.198 387.682 C 355.001 366.574 363.277 375.307 384.49 383.262 z "
       id="path1178"
       sodipodi:nodetypes="cccsc"
       transform="matrix(0.542424,0.000000,0.000000,0.542424,453.3734,140.5951)" />
    <path
       style="font-size:12;fill:#800000;fill-rule:evenodd;stroke-width:1pt;"
       d="M 265.386 336.195 C 280.412 345.034 290.768 354.701 288.809 358.735 C 286.143 364.525 277.54 361.828 258.094 360.061 C 268.406 356.23 278.939 350.632 265.386 336.195 z "
       id="path1179"
       sodipodi:nodetypes="cscc"
       transform="matrix(0.542424,0.000000,0.000000,0.542424,453.3734,140.5951)" />
    <path
       style="font-size:12;fill:url(#radialGradient3461);fill-rule:evenodd;stroke-width:1pt;"
       d="M 301.404 73.9031 C 259.861 96.8841 255.663 103.292 230.251 127.378 C 212.795 144.53 195.338 171.13 215.667 221.512 L 236.881 177.317 C 217.436 144.613 269.584 102.187 301.404 73.9031 z "
       id="path1180"
       sodipodi:nodetypes="csccc"
       transform="matrix(0.542424,0.000000,0.000000,0.542424,453.3734,140.5951)" />
    <path
       style="font-size:12;fill:#800000;fill-rule:evenodd;stroke-width:1pt;"
       d="M 309.58 78.3225 C 264.944 128.262 267.596 134.67 279.086 153.453 C 264.06 150.802 259.862 155.441 251.244 161.187 C 249.476 148.813 246.825 126.052 309.58 78.3225 z "
       id="path1181"
       sodipodi:nodetypes="cccc"
       transform="matrix(0.542424,0.000000,0.000000,0.542424,453.3734,140.5951)" />
    <path
       style="font-size:12;fill:url(#linearGradient1039);fill-rule:evenodd;stroke-width:1pt;"
       d="M 618.242 770.402 L 535.466 814.377 L 626.003 791.959 L 618.242 770.402 z "
       id="path1182"
       sodipodi:nodetypes="cccc"
       transform="matrix(0.542424,0.000000,0.000000,0.542424,453.3734,140.5951)" />
    <path
       style="font-size:12;fill:url(#radialGradient3457);fill-rule:evenodd;stroke-width:1pt;"
       d="M 195.338 698.809 C 184.525 701.529 128.011 780.698 200.641 763.332 C 280.328 744.491 254.402 683.725 195.338 698.809 z "
       id="path1183"
       sodipodi:nodetypes="css"
       transform="matrix(0.542424,0.000000,0.000000,0.542424,495.0846,26.48860)" />
    <path
       style="font-size:12;fill:#9a0000;fill-rule:evenodd;stroke:#000000;stroke-width:3.75;"
       d="M 224.188 468.61 C 283.684 463.437 279.373 486.718 273.337 505.688 C 270.75 518.621 246.585 550.46 222.442 528.041 L 256.352 484.496 C 236.928 498.616 220.028 566.327 181.01 506.42 L 224.188 468.61 z "
       id="path1184"
       sodipodi:nodetypes="cccccc"
       transform="matrix(0.542424,0.000000,0.000000,0.542424,453.3734,140.5951)" />
    <path
       style="font-size:12;fill:url(#radialGradient3465);fill-rule:evenodd;stroke-width:1pt;"
       d="M 220.087 722.673 C 208.964 721.899 176.342 750.908 214.783 755.377 C 238.064 758.023 243.795 724.384 220.087 722.673 z "
       id="path1185"
       sodipodi:nodetypes="css"
       transform="matrix(0.542424,0.000000,0.000000,0.542424,447.1407,12.10521)" />
    <path
       style="font-size:12;fill:#9a0000;fill-rule:evenodd;stroke:#000000;stroke-width:3.75;"
       d="M 193.147 458.263 C 147.449 460.882 156.83 515.929 201.77 509.136 C 227.598 505.102 237.478 454.86 193.147 458.263 z "
       id="path1186"
       sodipodi:nodetypes="css"
       transform="matrix(0.542424,0.000000,0.000000,0.542424,453.3734,140.5951)" />
    <path
       style="font-size:12;fill:url(#radialGradient3456);fill-rule:evenodd;stroke-width:1pt;"
       d="M 287.995 480.682 C 330.246 451.366 392.329 449.641 392.329 449.641 C 392.329 449.641 369.911 484.132 374.222 498.79 C 336.282 494.479 338.007 478.957 287.995 480.682 z "
       id="path1187"
       sodipodi:nodetypes="cccc"
       transform="matrix(0.542424,0.000000,0.000000,0.542424,453.3734,140.5951)" />
    <path
       style="font-size:12;fill:url(#radialGradient3458);fill-rule:evenodd;stroke-width:1pt;"
       d="M 249.172 577.476 C 242.231 596.424 247.266 629.867 273.758 651.852 L 316.672 655.765 C 370.702 613.464 282.647 628.837 249.172 577.476 z "
       id="path1188"
       sodipodi:nodetypes="cccc"
       transform="matrix(0.542424,0.000000,0.000000,0.542424,453.3734,140.5951)" />
    <path
       style="font-size:12;fill:url(#linearGradient3619);fill-rule:evenodd;stroke-width:1pt;"
       d="M 676.876 741.948 C 700.157 742.81 720.852 766.091 684.636 778.162 C 704.469 767.816 691.534 745.397 676.876 741.948 z "
       id="path1189"
       sodipodi:nodetypes="ccc"
       transform="matrix(0.542424,0.000000,0.000000,0.542424,453.3734,140.5951)" />
    <path
       style="font-size:12;fill:#006716;fill-rule:evenodd;stroke-width:1pt;"
       d="M 318.539 658.927 C 323.05 665.244 326.659 677.877 321.245 695.022 L 341.098 662.537 L 318.539 658.927 z "
       id="path1190"
       sodipodi:nodetypes="cccc"
       transform="matrix(0.542424,0.000000,0.000000,0.542424,453.3734,140.5951)" />
    <path
       style="font-size:12;fill:#007f19;fill-rule:evenodd;stroke:#000000;stroke-width:3.75;stroke-linecap:round;"
       d="M 324.385 721.79 C 393.328 719.138 381.455 659.749 347.366 659.034 C 323.034 658.506 333.224 691.738 319.082 699.693 C 284.611 718.255 276.656 714.718 252.791 716.486 "
       id="path1191"
       sodipodi:nodetypes="cscc"
       transform="matrix(0.542424,0.000000,0.000000,0.542424,453.3734,140.5951)" />
    <path
       style="font-size:12;fill:#007f1c;fill-rule:evenodd;stroke:#000000;stroke-width:3.75;stroke-linecap:round;"
       d="M 320.85 695.273 C 308.476 613.072 264.281 667.873 273.12 688.202 "
       id="path1192"
       sodipodi:nodetypes="cc"
       transform="matrix(0.542424,0.000000,0.000000,0.542424,453.3734,140.5951)" />
    <path
       style="font-size:12;fill:#006714;fill-rule:evenodd;stroke-width:1pt;"
       d="M 424.265 673.176 L 441.659 727.977 C 398.349 762.449 335.876 759.796 314.663 762.448 L 313.779 755.377 C 428.684 745.655 421.612 707.648 405.702 670.525 L 424.265 673.176 z "
       id="path1193"
       sodipodi:nodetypes="cccccc"
       transform="matrix(0.542424,0.000000,0.000000,0.542424,453.3734,140.5951)" />
    <path
       style="font-size:12;fill:#999999;fill-rule:evenodd;stroke:#000000;stroke-width:3.75;"
       d="M 410.122 685.551 C 387.681 690.785 395.98 719.138 410.122 716.487 C 428.405 712.83 425.248 681.817 410.122 685.551 z "
       id="path1194"
       sodipodi:nodetypes="css"
       transform="matrix(0.542424,0.000000,0.000000,0.542424,453.3734,140.5951)" />
    <path
       style="font-size:12;fill:none;fill-rule:evenodd;stroke:#ffffe6;stroke-width:3.75;stroke-linecap:round;"
       d="M 291.682 714.718 C 301.405 712.067 319.082 713.835 324.386 720.906 "
       id="path1195"
       sodipodi:nodetypes="cc"
       transform="matrix(0.542424,0.000000,0.000000,0.542424,459.1266,138.6773)" />
    <path
       style="font-size:12;fill:none;fill-rule:evenodd;stroke:#ffffe6;stroke-width:3.75;stroke-linecap:round;"
       d="M 291.681 711.183 C 301.404 708.532 323.501 712.067 328.805 719.138 "
       id="path1196"
       sodipodi:nodetypes="cc"
       transform="matrix(0.542424,0.000000,0.000000,0.542424,469.1949,134.8419)" />
    <path
       style="font-size:12;fill:none;fill-rule:evenodd;stroke:#ffffe6;stroke-width:3.75;stroke-linecap:round;"
       d="M 290.798 705.879 C 300.521 703.228 320.849 706.764 328.805 714.719 "
       id="path1197"
       sodipodi:nodetypes="cc"
       transform="matrix(0.542424,0.000000,0.000000,0.542424,474.9482,131.0064)" />
    <path
       style="font-size:12;fill:none;fill-rule:evenodd;stroke:#ffffe6;stroke-width:3.75;stroke-linecap:round;"
       d="M 287.262 714.718 C 296.985 712.067 311.127 712.067 325.269 720.906 "
       id="path1198"
       sodipodi:nodetypes="cc"
       transform="matrix(0.542424,0.000000,0.000000,0.542424,477.8248,119.4998)" />
    <path
       style="font-size:12;fill:none;fill-rule:evenodd;stroke:#ffffe6;stroke-width:3.75;stroke-linecap:round;"
       d="M 292.566 712.95 C 302.289 710.299 329.689 712.067 334.993 719.138 "
       id="path1199"
       sodipodi:nodetypes="cc"
       transform="matrix(0.542424,0.000000,0.000000,0.542424,418.8537,136.2802)" />
    <path
       style="font-size:12;fill:none;fill-rule:evenodd;stroke:#ffffe6;stroke-width:3.75;stroke-linecap:round;"
       d="M 294.333 712.95 C 304.056 710.299 327.921 712.951 333.225 720.022 "
       id="path1200"
       sodipodi:nodetypes="cc"
       transform="matrix(0.542424,0.000000,0.000000,0.542424,432.7574,131.4858)" />
    <path
       style="font-size:12;fill:none;fill-rule:evenodd;stroke:#ffffe6;stroke-width:3.75;stroke-linecap:round;"
       d="M 292.566 711.182 C 302.289 708.531 326.153 714.719 331.457 721.79 "
       id="path1201"
       sodipodi:nodetypes="cc"
       transform="matrix(0.542424,0.000000,0.000000,0.542424,444.7434,126.6914)" />
    <path
       style="font-size:12;fill:none;fill-rule:evenodd;stroke:#ffffe6;stroke-width:3.75;stroke-linecap:round;"
       d="M 290.798 715.602 C 300.521 712.951 320.85 713.835 326.154 720.906 "
       id="path1202"
       sodipodi:nodetypes="cc"
       transform="matrix(0.542424,0.000000,0.000000,0.542424,446.1817,118.0614)" />
    <path
       style="font-size:12;fill:none;fill-rule:evenodd;stroke:#000000;stroke-width:3.75;"
       d="M 187.383 743.887 C 195.338 759.797 215.668 769.519 312.011 764.216 "
       id="path1203"
       sodipodi:nodetypes="cc"
       transform="matrix(0.542424,0.000000,0.000000,0.542424,453.3734,140.5951)" />
    <path
       style="font-size:12;fill:#ffffe6;fill-rule:evenodd;stroke-width:1pt;"
       d="M 250.139 725.325 C 199.281 729.198 170.483 753.227 242.184 758.029 C 289.756 761.275 285.474 723.518 250.139 725.325 z "
       id="path1204"
       sodipodi:nodetypes="css"
       transform="matrix(0.542424,0.000000,0.000000,0.542424,453.3734,140.5951)" />
    <path
       style="font-size:12;fill:#ffffe6;fill-rule:evenodd;stroke-width:1pt;"
       d="M 190.919 718.254 C 170.113 753.062 283.95 754.994 282.843 742.119 C 281.573 726.346 233.653 743.007 190.919 718.254 z "
       id="path1205"
       sodipodi:nodetypes="csc"
       transform="matrix(0.542424,0.000000,0.000000,0.542424,451.4556,160.2521)" />
    <path
       style="font-size:12;fill:none;fill-rule:evenodd;stroke:#000000;stroke-width:3.75;"
       d="M 187.383 743.887 C 195.338 759.797 228.926 765.1 279.307 756.261 "
       id="path1206"
       sodipodi:nodetypes="cc"
       transform="matrix(0.542424,0.000000,0.000000,0.542424,405.4294,131.0063)" />
    <path
       style="font-size:12;fill:#ffffe6;fill-rule:evenodd;stroke-width:1pt;"
       d="M 251.023 728.86 C 205.49 736.404 164.898 747.903 238.648 754.493 C 281.607 757.817 281.507 723.956 251.023 728.86 z "
       id="path1207"
       sodipodi:nodetypes="css"
       transform="matrix(0.542424,0.000000,0.000000,0.542424,405.4294,131.9652)" />
    <path
       style="font-size:12;fill:#ffffe6;fill-rule:evenodd;stroke-width:1pt;"
       d="M 190.919 718.254 C 170.113 748.643 257.433 754.994 256.326 739.467 C 255.133 723.688 233.653 743.007 190.919 718.254 z "
       id="path1208"
       sodipodi:nodetypes="csc"
       transform="matrix(0.542424,0.000000,0.000000,0.542424,402.0732,149.2250)" />
    <path
       style="font-size:12;fill:url(#radialGradient3464);fill-rule:evenodd;stroke-width:1pt;"
       d="M 216.551 725.325 C 205.468 726.546 174.575 750.908 218.319 755.377 C 241.701 756.882 241.143 723.5 216.551 725.325 z "
       id="path1209"
       sodipodi:nodetypes="css"
       transform="matrix(0.542424,0.000000,0.000000,0.542424,436.5930,-2.757160)" />
    <path
       style="font-size:12;fill:#9a0000;fill-rule:evenodd;stroke:#000000;stroke-width:3.75;"
       d="M 195.734 464.299 C 149.978 463.044 156.83 515.929 201.77 509.136 C 227.598 505.102 228.855 466.069 195.734 464.299 z "
       id="path1210"
       sodipodi:nodetypes="css"
       transform="matrix(0.542424,0.000000,0.000000,0.542424,461.7921,117.2095)" />
    <path
       style="font-size:12;fill:url(#radialGradient3463);fill-rule:evenodd;stroke-width:1pt;"
       d="M 217.435 726.209 C 203.7 726.546 174.575 750.908 218.319 755.377 C 241.701 756.882 242.087 725.594 217.435 726.209 z "
       id="path1211"
       sodipodi:nodetypes="css"
       transform="matrix(0.542424,0.000000,0.000000,0.542424,446.1817,-23.85320)" />
    <path
       style="font-size:12;fill:#7f0000;fill-rule:evenodd;stroke-width:1pt;"
       d="M 374.767 537.942 C 395.096 598.046 313.778 613.072 284.61 593.626 C 334.108 586.555 357.973 586.556 374.767 537.942 z "
       id="path1212"
       sodipodi:nodetypes="ccc"
       transform="matrix(0.542424,0.000000,0.000000,0.542424,453.3734,140.5951)" />
    <path
       style="font-size:12;fill:#800000;fill-rule:evenodd;stroke-width:1pt;"
       d="M 357.09 580.368 C 347.366 592.743 290.797 628.982 266.048 585.671 C 298.753 593.626 310.243 595.395 357.09 580.368 z "
       id="path1213"
       sodipodi:nodetypes="ccc"
       transform="matrix(0.542424,0.000000,0.000000,0.542424,447.6201,131.4857)" />
    <path
       style="font-size:12;fill:#800000;fill-rule:evenodd;stroke-width:1pt;"
       d="M 313.78 541.477 C 321.733 566.226 290.355 608.211 265.606 586.113 C 295.659 547.222 305.824 526.452 313.78 541.477 z "
       id="path1214"
       sodipodi:nodetypes="ccc"
       transform="matrix(0.542424,0.000000,0.000000,0.542424,431.3192,108.9521)" />
    <path
       style="font-size:12;fill:none;fill-rule:evenodd;stroke:#ffff00;stroke-width:3.75;stroke-linecap:round;"
       d="M 83.9209 374.679 C 93.2454 380.695 105.277 384.004 114.601 380.996 "
       id="path1215"
       sodipodi:nodetypes="cc"
       transform="matrix(0.542424,0.000000,0.000000,0.542424,429.8788,165.0685)" />
    <path
       style="font-size:12;fill:none;fill-rule:evenodd;stroke:#ffa600;stroke-width:3.75;stroke-linecap:round;"
       d="M 137.161 343.998 C 162.728 356.33 160.322 388.515 148.891 399.946 "
       id="path1216"
       sodipodi:nodetypes="cc"
       transform="matrix(0.542424,0.000000,0.000000,0.542424,458.2679,150.3845)" />
    <path
       style="font-size:12;fill:none;fill-rule:evenodd;stroke:#ffff00;stroke-width:3.75;stroke-linecap:round;"
       d="M 91.1399 345.803 C 121.069 370.919 151.899 355.654 173.368 335.877 C 194.799 317.034 206.944 305.347 175.962 277.223 "
       id="path1217"
       sodipodi:nodetypes="csc"
       transform="matrix(0.542424,0.000000,0.000000,0.542424,436.2419,187.0946)" />
    <path
       style="font-size:12;fill:none;fill-rule:evenodd;stroke:#ffa600;stroke-width:3.75;stroke-linecap:round;"
       d="M 186.792 417.992 L 213.862 441.455 "
       id="path1218"
       sodipodi:nodetypes="cc"
       transform="matrix(0.542424,0.000000,0.000000,0.542424,408.8315,128.3584)" />
    <path
       style="font-size:12;fill:none;fill-rule:evenodd;stroke:#ffa600;stroke-width:3.75;stroke-linecap:round;"
       d="M 210.254 455.892 L 221.081 481.159 "
       id="path1219"
       sodipodi:nodetypes="cc"
       transform="matrix(0.542424,0.000000,0.000000,0.542424,386.3162,97.52182)" />
    <path
       style="font-size:12;fill:none;fill-rule:evenodd;stroke:#ffff00;stroke-width:3.75;stroke-linecap:round;"
       d="M 85.7256 373.777 C 94.1477 380.695 99.8626 385.809 109.186 385.508 "
       id="path1220"
       sodipodi:nodetypes="cc"
       transform="matrix(0.542424,0.000000,0.000000,0.542424,453.3734,140.5951)" />
    <path
       style="font-size:12;fill:none;fill-rule:evenodd;stroke:#ffa600;stroke-width:3.75;stroke-linecap:round;"
       d="M 223.79 454.99 C 230.106 463.412 236.422 470.932 237.324 482.964 "
       id="path1221"
       sodipodi:nodetypes="cc"
       transform="matrix(0.542424,0.000000,0.000000,0.542424,396.1053,77.94302)" />
    <path
       style="font-size:12;fill:none;fill-rule:evenodd;stroke:#ffff00;stroke-width:3.75;stroke-linecap:round;"
       d="M 122.724 378.288 C 133.853 382.499 143.177 390.321 151.598 394.531 "
       id="path1222"
       sodipodi:nodetypes="cc"
       transform="matrix(0.542424,0.000000,0.000000,0.542424,450.4365,119.5479)" />
    <path
       style="font-size:12;fill:#ffffe6;fill-rule:evenodd;stroke-width:1pt;"
       d="M 270.569 725.475 C 257.315 727.694 259.202 744.816 268.127 747.427 C 261.72 736.163 265.039 731.462 270.569 725.475 z "
       id="path1223"
       sodipodi:nodetypes="ccc"
       transform="matrix(0.542424,0.000000,0.000000,0.542424,529.2411,121.5058)" />
    <path
       style="font-size:12;fill:#4c4c4c;fill-rule:evenodd;stroke-width:1pt;"
       d="M 406.553 647.339 C 417.361 643.182 422.765 671.865 404.474 674.776 C 413.204 667.293 417.777 653.575 406.553 647.339 z "
       id="path1224"
       sodipodi:nodetypes="ccc"
       transform="matrix(0.542424,0.000000,0.000000,0.542424,456.0854,162.2921)" />
  </g>
  <path
     style="font-size:12;fill:#ffffff;fill-rule:evenodd;stroke-width:1;"
     d="M 326.517 324.287 L 263.944 489.252 L 343.582 546.137 L 408.43 542.724 L 452.8 452.846 L 395.916 314.048 L 326.517 324.287 z "
     id="path1714"
     sodipodi:nodetypes="ccccccc"
     transform="translate(1.93912,-1.317002)" />
  <g
     id="g1715"
     style="font-size:12;fill:#c1c1bf;"
     transform="matrix(0.592297,0,0,0.592297,248.253,60.33057)">
    <path
       id="path1716"
       d="M329.336 727.552 C315.224 726.328 304.136 715.816 303.128 694.936 C306.368 639.496     309.608 582.112 271.232 545.104 C265.256 499.024 244.016 482.104 234.008 452.512     L218.24 441.208 L237.104 411.688 L245.168 411.904 L323.936 571.168 L340.424     651.448 z" />
  </g>
  <g
     id="g1717"
     style="font-size:12;fill:#c1c1bf;"
     transform="matrix(0.592297,0,0,0.592297,248.253,60.33057)">
    <path
       id="path1718"
       d="M136.232 439.696 C133.856 455.248 132.56 470.512 134.792 485.272 C118.376 507.592     105.92 530.128 104.48 553.312 C92.024 586.504 62.432 614.584 67.544 680.104     C84.176 697.456 107.432 713.584 127.376 730.36 C152.432 751.312 137.528 778.96     102.248 772.408 C94.4 763.768 76.616 709.624 42.92 676.288 L49.544 632.584     L81.368 547.408 L120.968 484.048 L125.36 456.688 L119.816 386.776 L124.424     361.216 L136.232 439.696 z" />
  </g>
  <g
     id="g1719"
     style="font-size:12;fill:#c1c1bf;"
     transform="matrix(0.592297,0,0,0.592297,248.253,60.33057)">
    <path
       id="path1720"
       d="M115.64 341.416 C116.576 336.376 117.8 331.624 119.312 327.16 L121.688 342.784 z" />
  </g>
  <g
     id="g1721"
     style="font-size:12;fill:#c1c1bf;"
     transform="matrix(0.592297,0,0,0.592297,248.253,60.33057)">
    <path
       id="path1722"
       d="M120.968 500.464 C108.368 523.792 103.976 546.256 132.92 550.216 C117.008 553.888     97.208 568.648 77.192 593.488 L77.624 543.016 L101.456 503.272 z" />
  </g>
  <g
     id="g1723"
     style="font-size:12;fill:#c1c1bf;"
     transform="matrix(0.592297,0,0,0.592297,248.253,60.33057)">
    <path
       id="path1724"
       d="M-33.256 818.488 C10.52 838.144 41.408 837.064 69.272 850.96 C91.304 862.552 113.552     861.184 126.944 847.144 C138.32 832.456 146.744 831.736 163.52 830.224 C190.952     828.568 217.736 828.28 241.928 830.8 L269.576 833.032 C269.072 864.064     328.04 867.88 345.392 844.336 C366.344 819.424 395.144 808.264 419.84 790.192     L289.304 725.536 C255.824 806.464 131.048 827.632 113.768 763.264 z" />
  </g>
  <path
     id="path1726"
     d="M 215.679 753.858 C 211.431 737.662 207.508 735.541 191.931 722.158 L 180.186 755.345 L 187.757 771.115 C 208.918 775.423 216.152 759.897 215.679 753.858 z "
     transform="matrix(0.592297,0,0,0.592297,205.5997,61.51544)"
     style="font-size:12;fill:#c1c1bf;"
     sodipodi:nodetypes="ccccs" />
  <g
     id="g1727"
     style="font-size:12;"
     transform="matrix(0.592297,0,0,0.592297,248.253,60.33057)">
    <path
       id="path1728"
       d="M-37.36 821.224 C7.136 840.88 38.6 839.728 66.968 853.696 C89.36 865.216 111.968     863.92 125.648 849.808 C137.24 835.192 145.808 834.472 162.872 832.96 C190.736     831.232 218.024 831.016 242.648 833.464 L270.728 835.768 C270.224 866.8 330.272     870.544 347.912 847 C369.224 822.088 398.528 811 423.656 792.856 L290.816     728.272 C256.76 809.128 129.824 830.296 112.256 766 z" />
  </g>
  <g
     id="g1729"
     style="font-size:12;fill:#b77200;stroke:#000000;stroke-width:2.11043;"
     transform="matrix(0.592297,0,0,0.592297,248.253,60.33057)">
    <path
       id="path1730"
       d="M382.328 691.984 C403.64 698.968 389.888 720.28 400.76 732.52 C405.44 742.888 415.304     752.032 431.792 760.528 C459.368 774.424 426.248 799.336 392.768 812.08     C351.944 825.616 344.024 862.912 299.312 851.896 C283.112 846.496 278.36 831.808     278.864 809.128 C284.264 762.76 277.784 730.432 278.792 698.824 C278.72     686.152 283.544 684.64 307.232 687.952 C310.04 726.328 352.376 727.336 382.328     691.984 z"
       style="stroke:#000000;stroke-opacity:1;stroke-width:2.11043;stroke-dasharray:none;" />
  </g>
  <path
     id="path1731"
     d="M 339.632 826.624 C 371.6 814.312 403.856 798.112 429.848 782.128 C 437.84 777.448 438.92 765.928 427.688 762.328 C 403.352 748.504 390.8868 731.224 393.6948 708.76 C 394.9095 702.0862 392.7577 699.8779 387.0345 694.4496 C 395.5547 730.178 325.449 776.595 306.44 707.516 C 306.944 705.428 304.198 691.963 304.702 689.947 C 292.39 687.427 285.2 690.976 285.776 700.408 L 295.28 806.608 C 297.656 830.8 317.312 836.128 339.632 826.624 z "
     transform="matrix(0.592297,0,0,0.592297,248.253,60.33057)"
     style="font-size:12;fill:url(#linearGradient3791);"
     sodipodi:nodetypes="cccccccccc" />
  <g
     id="g1732"
     style="font-size:12;"
     transform="matrix(0.592297,0,0,0.592297,248.253,60.33057)">
    <path
       id="path1733"
       d="M354.464 537.544 C379.16 569.8 404.432 651.088 384.416 691.552 C360.944 737.776 307.808     743.248 305.504 695.8 C308.816 639.64 311.984 581.536 273.68 544.096     C267.704 497.368 246.392 480.232 236.384 450.28 L203.12 426.088 L133.568 435.088     C130.76 452.152 129.104 468.784 131.552 484.912 C115.064 507.376 102.608     530.056 101.168 553.312 C88.712 586.648 59.12 614.944 64.232 680.752 C80.864     698.248 104.12 714.448 124.064 731.296 C149.12 752.392 135.512 776.296 100.232     769.672 C78.848 746.056 56.744 722.872 35.288 699.328 C12.392 683.056     3.896 662.176 27.368 630.496 C43.424 609.04 47.96 562.456 62 543.664 C74.312     525.16 92.24 508.6 105.272 490.096 C112.184 477.928 114.344 468.568 113.264     454.456 L110.312 369.136 C108.368 307.216 142.424 274.24 189.8 275.248 C243.512     275.752 287.576 312.472 288.152 378.28 C292.688 410.32 283.256 428.68 308.672     474.472 C334.52 522.712 338.552 520.12 354.464 537.544 z" />
  </g>
  <path
     id="path1735"
     d="M 261.296 503.632 L 263.528 512.2 C 257.696 501.688 250.366 483.945 241.928 475.696 C 238.918 472.754 233.377 469.395 217.698 481.536 C 203.353 493.661 172.42 498.819 153.05 483.564 C 151.034 474.204 129.752 463.168 130.976 455.32 L 240.704 453.52 C 238.472 463.168 253.088 487 261.296 503.632 z "
     transform="matrix(0.592297,0,0,0.592297,248.253,60.33057)"
     style="font-size:12;fill:#c1c1bf;"
     sodipodi:nodetypes="ccsscccc" />
  <g
     id="g1736"
     style="font-size:12;fill:#c1c1bf;"
     transform="matrix(0.592297,0,0,0.592297,248.253,60.33057)">
    <path
       id="path1737"
       d="M143.144 363.232 C154.088 363.232 163.88 376.84 163.808 395.632 C163.736 408.232     155.528 411.472 149.336 417.016 C146.6 419.536 145.952 433.144 142.568 433.144     C131.696 433.144 123.488 413.776 123.488 395.632 C123.488 377.56 132.272     363.232 143.144 363.232 z" />
  </g>
  <path
     id="path1739"
     d="M 148.0004 372.6184 C 157.7204 372.6184 160.856 379.936 161.648 391.312 C 162.224 399.16 160.136 411.76 154.664 414.424 C 152.144 415.648 143.432 426.664 140.408 426.52 C 128.096 425.944 127.8252 400.0939 128.7612 391.1396 C 132.8538 377.7455 138.3524 372.6184 148.0004 372.6184 z "
     transform="matrix(0.592297,0,0,0.592297,248.253,60.33057)"
     style="font-size:12;fill:#ffffff;"
     sodipodi:nodetypes="cccccc" />
  <g
     id="g1740"
     style="font-size:12;"
     transform="matrix(0.592297,0,0,0.592297,248.253,60.33057)">
    <path
       id="path1741"
       d="M141.848 382.672 C148.544 382.096 154.736 389.728 155.6 399.664 C156.464 409.6 151.64     418.24 144.944 418.816 C138.248 419.392 132.056 411.76 131.192 401.752     C130.328 391.816 135.152 383.248 141.848 382.672 z" />
  </g>
  <g
     id="g1742"
     style="font-size:12;fill:#c1c1bf;stroke:url(#radialGradient1246);"
     transform="matrix(-0.592297,0,0,0.592297,417.0263,59.32275)">
    <path
       id="path1743"
       d="M151.064 397.288 C151.424 399.088 149.408 400.024 148.832 398.224 C148.256 395.992     146.888 393.328 145.088 391.168 C143.936 389.872 145.088 388.432 146.528 389.44     C149.048 391.528 150.488 394.12 151.064 397.288 z"
       style="stroke:url(#radialGradient1246);" />
  </g>
  <g
     id="g1744"
     style="font-size:12;fill:#c1c1bf;"
     transform="matrix(0.592297,0,0,0.592297,248.253,60.33057)">
    <path
       id="path1745"
       d="M216.944 360.712 C232.712 360.712 245.6 377.416 245.6 397.792 C245.6 418.24 232.712     434.872 216.944 434.872 C201.176 434.872 188.432 418.24 188.432 397.792 C188.432     377.416 201.176 360.712 216.944 360.712 z" />
  </g>
  <path
     id="path1747"
     d="M 227.6172 372.9501 C 238.4892 376.8381 241.928 387.424 242.72 396.568 C 243.656 407.08 239.408 418.96 230.264 425.944 C 227.672 427.888 197.72 416.08 195.992 411.616 C 193.4 405.208 195.4483 393.7033 197.3923 386.4312 C 198.9915 382.744 202.8662 377.3572 207.2299 374.3181 C 213.4939 370.7901 219.4812 370.0701 227.6172 372.9501 z "
     transform="matrix(0.592297,0,0,0.592297,248.253,60.33057)"
     style="font-size:12;fill:#ffffff;"
     sodipodi:nodetypes="ccccccc" />
  <g
     id="g1748"
     style="font-size:12;"
     transform="matrix(0.592297,0,0,0.592297,248.253,60.33057)">
    <path
       id="path1749"
       d="M216.872 380.944 C225.584 380.944 232.712 389.296 232.712 399.448 C232.712 409.672     225.584 418.024 216.872 418.024 C208.16 418.024 201.032 409.672 201.032 399.448     C201.032 389.296 208.16 380.944 216.872 380.944 z" />
  </g>
  <g
     id="g1750"
     style="font-size:12;fill:#c1c1bf;stroke:url(#radialGradient1248);"
     transform="matrix(-0.592297,0,0,0.592297,504.6233,59.6586)">
    <path
       id="path1751"
       d="M227.096 392.392 C228.104 394.048 226.448 395.776 225.224 394.12 C223.784 392.104     221.408 389.944 218.888 388.432 C217.232 387.568 217.808 385.624 219.68 386.2     C222.92 387.28 225.368 389.368 227.096 392.392 z"
       style="stroke:url(#radialGradient1248);" />
  </g>
  <g
     id="g1752"
     style="font-size:12;fill:#b77200;stroke:#000000;stroke-width:2.11043;"
     transform="matrix(0.592297,0,0,0.592297,248.253,60.33057)">
    <path
       id="path1753"
       d="M164.96 404.488 C172.376 402.328 184.112 403.048 192.248 404.632 C200.384 406.792     222.056 418.24 245.024 430.696 C247.976 432.208 248.84 437.104 245.024 438.688     C239.12 439.12 249.272 453.664 238.904 458.848 C223.352 462.88 198.44 485.992     186.128 487.864 C179.288 489.376 172.232 489.592 164.6 487.864 C140.552     482.968 134.216 455.608 122.912 450.064 C119.816 446.824 121.4 441.208 122.408     440.056 C123.632 434.224 149.696 406.216 164.96 404.488 z"
       style="stroke:#000000;stroke-opacity:1;stroke-width:2.11043;stroke-dasharray:none;" />
  </g>
  <path
     id="path1755"
     d="M 185.408 405.856 C 198.44 407.296 226.088 423.928 239.408 430.624 C 242.72 432.424 242.504 437.824 239.552 438.688 C 236.384 440.488 235.448 438.256 232.928 437.896 C 228.896 435.736 222.272 440.92 217.016 444.88 C 186.704 467.776 180.656 465.256 156.176 462.664 C 147.68 460.576 129.322 452.126 118.819 447.547 C 119.521 433.44 148.048 410.585 154.678 408.989 C 163.584 403.972 179.936 404.632 185.408 405.856 z "
     style="font-size:12;fill:url(#linearGradient747);"
     transform="matrix(0.592297,0,0,0.592297,250.0117,59.67996)"
     sodipodi:nodetypes="ccccccccc" />
  <g
     id="g1756"
     style="font-size:12;fill:#b77200;"
     transform="matrix(0.592297,0,0,0.592297,248.253,60.33057)">
    <path
       id="path1757"
       d="M190.664 412.048 L193.76 413.416 C196.064 414.712 193.256 418.168 190.736 417.088     L186.2 415.504 C183.536 413.272 186.704 410.104 190.664 412.048 z" />
  </g>
  <g
     id="g1758"
     style="font-size:12;fill:#c1c1bf;"
     transform="matrix(-0.255145,-9.747874e-2,-0.211386,0.553292,483.3818,123.9695)">
    <path
       id="path1759"
       d="M268.568 452.368 C273.032 454.384 279.224 457.192 282.536 460.144 C285.488 464.104     286.784 468.064 286.424 472.024 C285.776 474.544 284.12 476.344 281.24 477.424     C277.856 478.216 273.68 477.424 271.376 474.112 C269.864 471.448 265.256     462.16 263.96 460.576 C262.232 457.12 261.944 454.456 262.88 452.368 C264.032     451.288 266.048 451 268.568 452.368 z" />
  </g>
  <g
     id="g1760"
     style="font-size:12;fill:#ffffff;"
     transform="matrix(-0.255145,-9.747874e-2,-0.211386,0.553292,483.3818,123.9695)">
    <path
       id="path1761"
       d="M273.752 461.584 C275.48 462.376 277.928 463.456 279.224 464.68 C280.376 466.264     280.88 467.776 280.736 469.36 C280.52 470.296 279.8 471.016 278.72 471.448 C277.352     471.808 275.768 471.448 274.832 470.152 C274.256 469.144 272.456 465.472     271.952 464.824 C271.232 463.456 271.088 462.448 271.448 461.584 C271.952     461.152 272.744 461.08 273.752 461.584 z" />
  </g>
  <g
     id="g1762"
     style="font-size:12;fill:#c1c1bf;"
     transform="matrix(-0.592297,0,0,0.592297,464.2277,60.33065)">
    <path
       id="path1763"
       d="M238.616 358.552 C239.048 359.2 238.976 359.776 238.4 360.28 C237.896 360.784 237.176     360.712 236.24 360.208 L231.632 356.248 C231.056 355.744 230.912 354.952     231.272 354.088 C232.28 353.44 233.144 353.44 233.936 354.088 z" />
  </g>
  <g
     id="g1764"
     style="font-size:12;fill:#c1c1bf;"
     transform="matrix(-0.592297,0,0,0.592297,658.6484,63.69979)">
    <path
       id="path1765"
       d="M374.912 680.536 C378.296 683.128 373.256 687.376 371.024 686.296 C369.152 685.648     367.784 683.488 366.92 682.408 C366.128 681.184 366.2 679.168 366.92 678.448     C367.712 677.44 369.728 677.656 371.024 678.52 C372.32 679.168 373.616 679.888     374.912 680.536 z" />
  </g>
  <g
     id="g1766"
     style="font-size:12;fill:#c1c1bf;"
     transform="matrix(0.592297,0,0,0.592297,248.253,60.33057)">
    <path
       id="path1767"
       d="M297.44 551.512 C338.984 572.896 350 611.56 332.072 664.192 C330.992 666.64 334.16     668.368 335.24 666.064 C354.824 610.336 341.432 571.312 299.024 548.56 C296.864     547.552 295.28 550.432 297.44 551.512 z" />
  </g>
  <g
     id="g1768"
     style="font-size:12;fill:#c1c1bf;"
     transform="matrix(0.592297,0,0,0.592297,248.253,60.33057)">
    <path
       id="path1769"
       d="M72.008 569.512 C38.312 627.256 38.096 662.68 62.504 681.328 C63.728 682.264 64.448     680.032 63.296 679.168 C36.296 655.48 48.896 615.52 74.168 570.88 C74.888     569.584 72.512 568.432 72.008 569.512 z" />
  </g>
  <g
     id="g1770"
     style="font-size:12;fill:#c1c1bf;"
     transform="matrix(0.592297,0,0,0.592297,248.253,60.33057)">
    <path
       id="path1771"
       d="M289.376 586.864 C289.232 589.168 288.368 589.528 286.424 587.368 C279.8 575.848     235.088 551.44 213.344 548.704 C209.24 547.264 209.456 545.392 213.488 544.816     C229.184 544.816 241.28 537.904 254.96 537.904 C258.704 538.048 262.304 539.488     264.392 541.648 C269.504 544.96 288.08 570.592 289.376 586.864 z" />
  </g>
  <g
     id="g1772"
     style="font-size:12;fill:#c1c1bf;"
     transform="matrix(0.592297,0,0,0.592297,248.253,60.33057)">
    <path
       id="path1773"
       d="M180.152 546.832 C180.872 550.792 163.808 545.68 164.744 556.696 C165.032 559.72     160.496 561.376 160.64 556.696 C160.64 548.272 161.072 548.416 152.72 546.832     C151.208 546.76 151.352 544.528 152.72 544.816 L152.72 544.816 C158.696 546.472     166.76 542.872 166.4 538.84 C166.256 537.472 168.56 537.688 168.488 538.84     C167.984 545.248 181.664 542.152 180.152 546.832 z" />
  </g>
  <g
     id="g1774"
     style="font-size:12;fill:#c1c1bf;"
     transform="matrix(0.592297,0,0,0.592297,248.253,60.33057)">
    <path
       id="path1775"
       d="M151.568 705.376 C151.64 708.328 148.76 707.68 148.544 705.592 C140.192 680.536 143.72     618.832 151.856 598.96 C152.432 596.08 156.248 596.944 155.744 598.96     C147.104 635.464 147.248 673.048 151.568 705.376 z" />
  </g>
  <g
     id="g1776"
     style="font-size:12;fill:#b77200;stroke:#000000;stroke-width:2.11043;"
     transform="matrix(0.592297,0,0,0.592297,248.253,60.33057)">
    <path
       id="path1777"
       d="M51.704 684.424 C75.68 707.824 91.376 743.248 114.632 775.288 C148.472 816.04 121.472     858.304 66.464 845.56 C38.888 835.192 -0.784 836.344 -32.68 825.832 C-55.072     820.36 -55.864 809.272 -44.416 787.6 C-40.384 773.776 -40.024 751.312     -43.768 732.592 C-45.784 718.408 -39.232 710.488 -24.112 708.832 L-24.112 708.832     C-11.296 708.688 6.56 713.872 16.28 686.44 C23.552 673.336 40.976 672.976     51.704 684.424 z"
       style="stroke:#000000;stroke-opacity:1;stroke-width:2.11043;stroke-dasharray:none;" />
  </g>
  <g
     id="g1778"
     style="font-size:12;fill:url(#linearGradient3792);"
     transform="matrix(0.592297,0,0,0.592297,248.253,60.33057)">
    <path
       id="path1779"
       d="M24.632 699.04 C23.84 680.968 39.32 677.296 49.688 688.312 C68.192 710.992 85.112     736.048 100.376 764.992 C124.712 804.16 104.624 842.68 67.904 828.064 C49.688     817.84 6.128 813.304 -17.344 809.128 C-33.04 807.832 -35.128 797.608 -29.152     791.848 C-20.944 782.416 -20.08 759.808 -27.856 740.512 C-35.56 728.56 -21.088     715.384 -9.712 720.856 C0.8 727.048 25.64 713.08 24.632 699.04 z"
       style="fill:url(#linearGradient3792);fill-opacity:1;" />
  </g>
  <path
     transform="matrix(1.333908,0.149185,-0.149791,0.798943,0.000000,0.000000)"
     style="font-size:40;font-weight:normal;opacity:0.99;fill:#ffffff;stroke-width:1pt;font-family:Luxi Sans;"
     d="M 351.819 51.5134 L 357.967 51.6782 C 361.449 51.712 365.425 51.1551 367.725 47.6271 C 368.38 45.3498 366.096 43.7127 363.019 43.2197 C 361.873 42.8421 360.571 42.8589 358.175 42.8589 L 355.182 42.7103 L 351.819 51.5134 z M 345.853 67.1033 L 355.26 66.3275 C 358.517 65.9333 360.87 66.1789 363.424 65.0619 C 364.622 64.502 366.49 63.6665 366.941 61.1861 C 366.769 59.2261 365.274 57.5505 363.381 56.5731 C 361.863 55.8055 358.528 54.8966 356.114 54.8003 L 350.742 54.5565 L 345.853 67.1033 z M 339.308 72.7146 L 353.163 39.7556 L 358.431 39.5477 C 362.233 39.5477 365.957 39.9269 367.519 40.9034 C 369.503 42.4031 370.524 44.3929 370.524 46.7366 C 370.524 48.8981 369.178 50.1701 367.628 51.5112 C 366.691 52.3185 364.782 52.8373 362.998 53.4493 C 365.264 54.1264 366.093 54.238 367.85 55.9794 C 369.543 57.9338 369.895 59.395 370.067 61.5632 C 370.067 63.6077 369.818 65.9378 368.318 67.324 C 367.068 68.6388 364.119 69.5655 362.767 69.7807 C 361.556 69.9761 358.559 70.3305 356.044 70.7139 L 339.308 72.7146 z M 375.338 67.1215 L 380.092 38.3289 L 383.313 38.4935 L 379.679 63.5096 L 395.428 64.1328 L 395.492 67.7732 L 375.338 67.1215 z M 399.23 39.7925 L 402.743 39.9022 L 402.982 57.599 C 403.132 62.5591 404.903 63.7176 406.594 64.8273 C 407.864 65.4516 409.034 65.4296 411.235 65.4296 C 413.826 65.4296 415.094 64.6268 416.136 63.4028 C 417.19 62.1919 418.019 61.1922 418.019 58.1714 L 415.034 39.397 L 418.928 39.4144 L 421.613 58.1128 C 421.613 60.6909 421.359 62.644 420.851 63.9722 C 420.343 65.3133 419.406 66.4722 418.038 67.4487 C 416.189 68.7638 413.722 69.4214 410.636 69.4214 C 406.704 69.4214 404.132 68.1586 402.296 66.3357 C 400.46 64.5128 399.445 60.7543 399.316 55.6347 L 399.23 39.7925 z M 451.648 57.2667 L 455.246 70.4238 C 451.678 71.4263 445.389 72.0372 442.004 72.0372 C 431.981 71.431 428.217 62.3518 427.024 55.7465 C 426.648 50.6018 426.656 46.1893 429.413 43.24 C 432.044 40.6097 433.266 39.7751 438.172 39.2843 C 441.375 39.2844 443.847 39.324 447.493 40.1963 L 448.718 44.209 C 444.538 42.8548 442.549 42.9002 439.762 42.9004 C 433.005 43.8265 430.161 45.7331 430.161 53.7539 C 430.161 57.7122 432.139 61.7207 434.118 63.8042 C 436.084 65.8875 438.705 67.3413 442.369 67.6285 C 443.867 67.6284 448.483 67.3007 450.84 66.8189 L 448.978 60.0108 L 443.162 59.1945 L 443.162 56.1867 L 451.648 57.2667 z "
     id="path3867"
     sodipodi:nodetypes="cccccccccccccccccccccccccccccccccccccccccccccccccccccccccccccccccccc" />
  <path
     style="fill:none;fill-rule:evenodd;stroke:#ffffff;stroke-opacity:1;stroke-width:1pt;stroke-linejoin:miter;stroke-linecap:butt;fill-opacity:1;"
     d="M 444.578 112.173 C 489.996 112.963 557.94 122.477 598.619 131.561 "
     id="path3865"
     sodipodi:nodetypes="cc"
     transform="matrix(1.034783,0.000000,0.000000,1.000000,-20.64666,1.525879e-5)" />
  <path
     style="fill:none;fill-rule:evenodd;stroke:#ffffff;stroke-opacity:1;stroke-width:1pt;stroke-linejoin:miter;stroke-linecap:butt;fill-opacity:1;"
     d="M 465.668 114.173 C 511.086 117.748 543.773 121.662 585.262 128.36 "
     id="path3866"
     sodipodi:nodetypes="cc"
     transform="matrix(1.008696,0.000000,0.000000,1.000000,-0.422524,-34.35965)" />
  <path
     style="fill:url(#radialGradient1233);fill-rule:evenodd;stroke:#000000;stroke-opacity:1;stroke-width:0.125;stroke-linejoin:miter;stroke-linecap:butt;fill-opacity:1;stroke-dasharray:none;"
     d="M 341.3499 347.1521 C 356.1884 352.889 365.1586 345.9563 371.5182 341.8097 C 374.1292 339.7543 376.635 338.5473 379.8928 336.1923 C 383.9275 333.5394 386.9959 333.2701 390.2448 331.1173 C 392.1211 330.6199 392.8781 327.1575 391.568 322.7087 C 391.6747 320.8367 389.0458 320.2739 387.6591 320.2403 C 383.425 319.7913 379.8288 322.1099 372.3608 328.121 C 353.2054 340.0763 339.6544 335.3028 322.1498 326.3125 C 331.2822 334.8592 329.2536 339.6003 341.3499 347.1521 z "
     id="path1226"
     sodipodi:nodetypes="ccccccccc" />
  <path
     style="font-size:12;fill:none;fill-rule:evenodd;stroke:#000000;stroke-width:1;"
     d="M 318.62 326.673 C 328.558 331.058 340.715 339.72 360.128 334.566 C 366.636 332.812 371.626 327.453 377.375 323.75 C 382.734 319.756 387.021 321.315 389.944 322.581 "
     id="path1780"
     sodipodi:nodetypes="cscc"
     transform="translate(1.93912,-1.317002)" />
  <path
     style="fill:url(#radialGradient1237);fill-rule:evenodd;stroke:none;stroke-opacity:1;stroke-width:0.125;stroke-linejoin:miter;stroke-linecap:butt;fill-opacity:1;stroke-dasharray:none;"
     d="M 337.0592 332.9301 C 342.4862 335.9618 356.7559 336.3555 363.1391 333.1404 C 363.3213 333.1196 357.549 344.9699 349.4194 345.4393 C 345.4879 345.691 336.5811 335.2448 337.0592 332.9301 z "
     id="path1239"
     sodipodi:nodetypes="cccc" />
</svg>
