<?xml version="1.0" standalone="yes"?>
<svg version="1.1" xmlns="http://www.w3.org/2000/svg" xmlns:xlink="http://www.w3.org/1999/xlink" xmlns:ev="http://www.w3.org/2001/xml-events" width="270" height="270">
<path style="fill:#ffffff; stroke:none;" d="M0 0L0 270L270 270L270 0L0 0z"/>
<path style="fill:#000000; stroke:none;" d="M10 10L10 80L80 80L80 10L10 10M110 10L110 20L100 20L100 30L90 30L90 40L100 40L100 60L110 60L110 80L120 80L120 90L130 90L130 100L120 100L120 110L110 110L110 100L100 100L100 70L90 70L90 90L50 90L50 120L30 120L30 110L40 110L40 90L10 90L10 100L20 100L20 140L30 140L30 130L50 130L50 140L40 140L40 160L20 160L20 150L10 150L10 160L20 160L20 170L10 170L10 180L20 180L20 170L30 170L30 180L40 180L40 160L50 160L50 180L90 180L90 220L100 220L100 230L90 230L90 260L100 260L100 240L110 240L110 250L130 250L130 260L140 260L140 250L130 250L130 240L110 240L110 230L130 230L130 210L150 210L150 230L140 230L140 240L150 240L150 230L160 230L160 260L180 260L180 240L170 240L170 220L180 220L180 230L190 230L190 220L200 220L200 240L190 240L190 250L200 250L200 260L210 260L210 250L230 250L230 230L240 230L240 220L260 220L260 210L250 210L250 200L260 200L260 180L230 180L230 160L240 160L240 170L250 170L250 160L260 160L260 130L250 130L250 120L260 120L260 100L250 100L250 110L230 110L230 120L240 120L240 140L250 140L250 150L230 150L230 130L220 130L220 110L210 110L210 130L220 130L220 150L230 150L230 160L220 160L220 170L210 170L210 160L200 160L200 130L180 130L180 120L200 120L200 90L180 90L180 60L170 60L170 50L180 50L180 30L170 30L170 20L180 20L180 10L140 10L140 20L150 20L150 50L140 50L140 40L130 40L130 30L120 30L120 40L130 40L130 60L110 60L110 40L100 40L100 30L110 30L110 20L120 20L120 10L110 10M190 10L190 80L260 80L260 10L190 10z"/>
<path style="fill:#ffffff; stroke:none;" d="M20 20L20 70L70 70L70 20L20 20M200 20L200 70L250 70L250 20L200 20z"/>
<path style="fill:#000000; stroke:none;" d="M30 30L30 60L60 60L60 30L30 30z"/>
<path style="fill:#ffffff; stroke:none;" d="M160 30L160 50L170 50L170 30L160 30z"/>
<path style="fill:#000000; stroke:none;" d="M210 30L210 60L240 60L240 30L210 30z"/>
<path style="fill:#ffffff; stroke:none;" d="M140 60L140 80L130 80L130 70L120 70L120 80L130 80L130 90L140 90L140 80L150 80L150 100L140 100L140 110L150 110L150 120L160 120L160 130L170 130L170 100L180 100L180 110L190 110L190 100L180 100L180 90L160 90L160 80L170 80L170 70L160 70L160 80L150 80L150 60L140 60z"/>
<path style="fill:#000000; stroke:none;" d="M230 90L230 100L240 100L240 90L230 90z"/>
<path style="fill:#ffffff; stroke:none;" d="M70 100L70 110L80 110L80 120L70 120L70 130L90 130L90 110L100 110L100 120L110 120L110 110L100 110L100 100L90 100L90 110L80 110L80 100L70 100M50 120L50 130L60 130L60 120L50 120M120 120L120 130L130 130L130 150L110 150L110 160L130 160L130 170L120 170L120 180L130 180L130 170L140 170L140 180L150 180L150 190L140 190L140 200L150 200L150 190L160 190L160 160L170 160L170 170L190 170L190 160L180 160L180 150L170 150L170 140L150 140L150 130L130 130L130 120L120 120M100 130L100 140L110 140L110 130L100 130M60 140L60 170L80 170L80 160L70 160L70 150L90 150L90 160L100 160L100 150L90 150L90 140L60 140z"/>
<path style="fill:#000000; stroke:none;" d="M140 150L140 160L150 160L150 150L140 150z"/>
<path style="fill:#ffffff; stroke:none;" d="M100 170L100 180L110 180L110 170L100 170M180 180L180 210L210 210L210 180L180 180z"/>
<path style="fill:#000000; stroke:none;" d="M10 190L10 260L80 260L80 190L10 190z"/>
<path style="fill:#ffffff; stroke:none;" d="M100 190L100 210L110 210L110 220L120 220L120 210L130 210L130 200L120 200L120 190L100 190z"/>
<path style="fill:#000000; stroke:none;" d="M190 190L190 200L200 200L200 190L190 190z"/>
<path style="fill:#ffffff; stroke:none;" d="M220 190L220 200L230 200L230 210L220 210L220 230L230 230L230 220L240 220L240 190L220 190M20 200L20 250L70 250L70 200L20 200M160 200L160 220L170 220L170 200L160 200z"/>
<path style="fill:#000000; stroke:none;" d="M30 210L30 240L60 240L60 210L30 210M250 230L250 240L240 240L240 260L260 260L260 250L250 250L250 240L260 240L260 230L250 230z"/>
<path style="fill:#ffffff; stroke:none;" d="M200 240L200 250L210 250L210 240L200 240z"/>
</svg>
